<svg width="100" height="100" viewBox="0 0 100 100" fill="none" xmlns="http://www.w3.org/2000/svg">
<path d="M50 0C22.3854 0 0 22.3861 0 50C0 77.6154 22.3854 100 50 100C77.6146 100 100 77.6154 100 50C100 22.3861 77.6146 0 50 0ZM50 75C46.548 75 43.75 72.2031 43.75 68.75C43.75 65.2984 46.548 62.5 50 62.5C53.452 62.5 56.25 65.2984 56.25 68.75C56.25 72.2031 53.452 75 50 75ZM56.25 53.125H43.75L40.625 28.125C40.625 26.3992 42.0242 25 43.75 25H56.25C57.9758 25 59.375 26.3992 59.375 28.125L56.25 53.125Z" fill="white"/>
</svg>
