<svg width="15" height="25" viewBox="0 0 15 25" fill="none" xmlns="http://www.w3.org/2000/svg">
<path d="M9.18784 24.9512H5.17648C4.50645 24.9512 3.96141 24.4072 3.96141 23.7385V14.7083H1.6211C0.951077 14.7083 0.406036 14.1642 0.406036 13.4956V9.6262C0.406036 8.95748 0.951077 8.41351 1.6211 8.41351H3.96141V6.47583C3.96141 4.55456 4.56589 2.91996 5.70929 1.74904C6.85785 0.572777 8.46296 -0.0488281 10.3511 -0.0488281L13.4104 -0.043869C14.0792 -0.0427246 14.6233 0.501251 14.6233 1.16882V4.76151C14.6233 5.43022 14.0785 5.9742 13.4086 5.9742L11.3489 5.97496C10.7207 5.97496 10.5608 6.10066 10.5265 6.13918C10.4702 6.20308 10.4031 6.38371 10.4031 6.88248V8.41332H13.2539C13.4685 8.41332 13.6764 8.46615 13.8551 8.56571C14.2405 8.78067 14.4802 9.18713 14.4802 9.62639L14.4787 13.4958C14.4787 14.1642 13.9336 14.7081 13.2636 14.7081H10.4031V23.7385C10.4031 24.4072 9.85786 24.9512 9.18784 24.9512ZM5.42989 23.4856H8.93443V14.0522C8.93443 13.6057 9.29849 13.2425 9.74568 13.2425H13.0102L13.0115 9.87911H9.74549C9.2983 9.87911 8.93443 9.51595 8.93443 9.06944V6.88248C8.93443 6.30989 8.99271 5.65872 9.42577 5.1693C9.94902 4.57764 10.7737 4.50935 11.3485 4.50935L13.1549 4.50859V1.42136L10.35 1.41678C7.31555 1.41678 5.42989 3.35541 5.42989 6.47583V9.06944C5.42989 9.51576 5.06602 9.87911 4.61882 9.87911H1.87451V13.2425H4.61882C5.06602 13.2425 5.42989 13.6057 5.42989 14.0522V23.4856ZM13.4075 1.42174H13.4077H13.4075Z" fill="white"/>
</svg>
