<svg width="80" height="76" viewBox="0 0 80 76" fill="none" xmlns="http://www.w3.org/2000/svg">
<path d="M70.9564 26.2034L79.5963 13.4559C80.0084 12.8481 80.1117 12.0823 79.8753 11.387C79.639 10.6917 79.0907 10.1473 78.3937 9.91623L50.1125 0.541248C49.1105 0.209217 48.0103 0.587654 47.425 1.46593L40 12.6033L32.5752 1.46578C31.9897 0.587498 30.8896 0.20906 29.8875 0.541091L1.60633 9.91607C0.909303 10.1472 0.360866 10.6915 0.124617 11.3869C-0.111633 12.0822 -0.00835164 12.8479 0.403679 13.4559L9.04366 26.2034L0.403835 38.9509C-0.0081954 39.5588 -0.111476 40.3246 0.124773 41.0199C0.361023 41.7152 0.909459 42.2596 1.60649 42.4907L9.53132 45.1176V63.8596C9.53132 64.8685 10.1768 65.7639 11.1338 66.083L39.2488 75.4546C39.7199 75.6139 40.2442 75.6247 40.7488 75.4555L68.8661 66.083C69.8231 65.7639 70.4687 64.8683 70.4687 63.8596V45.1176L78.3937 42.4905C79.0907 42.2595 79.6392 41.7151 79.8753 41.0198C80.1117 40.3245 80.0084 39.5587 79.5963 38.9507L70.9564 26.2034ZM50.3339 5.55311L73.9778 13.3909L67.1812 23.4184L43.6522 15.5754L50.3339 5.55311ZM6.02226 13.3908L29.6661 5.55296L36.3477 15.5753L12.8188 23.4182L6.02226 13.3908ZM6.02242 39.0159L12.8188 28.9884L36.3478 36.8313L29.6663 46.8537C25.6785 45.5318 8.72335 39.9113 6.02242 39.0159ZM37.6563 69.9827L14.2188 62.1702V46.6715L29.8875 51.8655C30.8832 52.1955 31.986 51.8247 32.5752 50.9408L37.6563 43.3193V69.9827ZM40 33.1077L19.2866 26.2032L40 19.2989L60.7134 26.2032L40 33.1077ZM65.7812 62.1702L42.3438 69.9827V43.3191L47.425 50.9408C48.0145 51.8252 49.1175 52.1954 50.1125 51.8655L65.7812 46.6715V62.1702ZM50.3339 46.8538L43.6522 36.8315L67.1812 28.9885L73.9778 39.0162C73.5746 39.1496 51.0311 46.6208 50.3339 46.8538Z" fill="#D02B38"/>
</svg>
