<svg width="76" height="80" viewBox="0 0 76 80" fill="none" xmlns="http://www.w3.org/2000/svg">
<path d="M75.854 17.0254C75.854 16.0105 75.241 15.096 74.3022 14.7103L38.9512 0.187715C38.3417 -0.0625716 37.6584 -0.0625716 37.049 0.187715L1.69789 14.7103C0.759164 15.0959 0.146118 16.0105 0.146118 17.0254V62.9746C0.146118 63.9895 0.759007 64.904 1.69789 65.2897L37.049 79.8123C37.6519 80.0599 38.3295 80.0652 38.948 79.8121C38.9782 79.8021 37.6398 80.351 74.3022 65.2897C75.2411 64.9041 75.854 63.9895 75.854 62.9746V17.0254ZM38.0001 29.0526L24.9745 23.7017L53.1241 11.4218L67.0208 17.1307L38.0001 29.0526ZM5.15185 20.9699L16.3899 25.5866V38.6115C16.3899 39.9937 17.5105 41.1144 18.8927 41.1144C20.2749 41.1144 21.3956 39.9937 21.3956 38.6115V27.643L35.4972 33.4361V73.763L5.15185 61.2969V20.9699ZM38.0001 5.20862L46.6766 8.77301L18.527 21.0528L8.97935 17.1305L38.0001 5.20862ZM40.5029 33.4361L70.8483 20.9699V61.2969L40.5029 73.763V33.4361Z" fill="#D02B38"/>
</svg>
