<svg width="72" height="50" viewBox="0 0 72 50" fill="none" xmlns="http://www.w3.org/2000/svg">
<path d="M59.6165 38.6415C62.4663 38.1581 65.1662 40.0914 65.6495 42.9413C65.6995 43.2413 65.7162 43.5246 65.7162 43.8079C65.7162 46.6911 63.3663 49.041 60.4831 49.041C57.5832 49.0243 55.25 46.6911 55.25 43.8079C55.25 43.5079 55.2666 43.2246 55.3166 42.9413C55.6833 40.7414 57.4166 39.0081 59.6165 38.6415Z" fill="black" fill-opacity="0.3"/>
<path d="M71.4826 26.6918C71.7992 26.8251 72.0159 27.1584 71.9992 27.5084V40.0912C71.9992 40.1246 71.9992 40.1579 71.9992 40.1912C71.9826 40.6412 71.6159 40.9745 71.1659 40.9579H68.5994C67.7327 38.4413 65.7662 36.4914 63.2663 35.6247C58.7831 34.0915 53.9 36.4747 52.3668 40.9579H50.1669V24.4586H66.2328L71.4826 26.6918Z" fill="black" fill-opacity="0.3"/>
<path d="M50.1835 13.6592C50.1835 13.6592 50.1835 13.6426 50.1835 13.6259C50.2002 13.1426 50.6002 12.7759 51.0668 12.7926H59.0165C59.3498 12.7926 59.6665 12.9926 59.8165 13.2926L63.8496 21.1256H50.1835V13.6592Z" fill="black" fill-opacity="0.3"/>
<path d="M12.3519 38.558C14.9184 38.558 17.1016 40.4079 17.5183 42.9411C17.5683 43.2411 17.585 43.5244 17.585 43.8077C17.585 46.6909 15.2351 49.0408 12.3519 49.0408C9.46865 49.0242 7.11876 46.6909 7.11876 43.7911C7.10209 43.5244 7.13542 43.2577 7.16875 42.9911C7.5854 40.4412 9.76864 38.5746 12.3519 38.558Z" fill="black" fill-opacity="0.3"/>
<path d="M46.8336 27.1252H1.83559V0.959656H51.8334V9.45928H51.0501C51.0334 9.45928 51.0167 9.45928 51.0001 9.45928C48.6835 9.47595 46.8169 11.3425 46.8336 13.6591V27.1252Z" fill="black" fill-opacity="0.3"/>
<path d="M0.835632 30.4584H46.8336V40.958H20.4848C19.6181 38.4414 17.6516 36.4915 15.1517 35.6249C10.6685 34.0916 5.78542 36.4748 4.25215 40.958H0.852299C0.818966 40.958 0.785633 40.958 0.752304 40.958C0.302322 40.9247 -0.0309982 40.5413 0.00233459 40.108V31.4084C0.00233459 30.9084 0.335655 30.4584 0.835632 30.4584Z" fill="black" fill-opacity="0.3"/>
</svg>
