<svg width="30" height="30" viewBox="0 0 30 30" fill="none" xmlns="http://www.w3.org/2000/svg">
<path d="M24.5381 19.6158C25.4497 18.9309 26.11 17.9945 26.4483 16.907L30 6.39203H7.16818L6.91629 3.59887C6.82963 2.61648 6.38133 1.70857 5.654 1.0426C4.92662 0.376621 3.98291 0.00976562 2.99666 0.00976562H0V2.35187H2.99666C3.82805 2.35187 4.51014 2.97643 4.58338 3.80699L6.41625 24.1301C6.41654 24.1337 6.41689 24.1373 6.41725 24.1409C6.5959 25.9352 7.94303 27.3367 9.66422 27.6287C10.1232 28.9986 11.4178 29.9888 12.9401 29.9888C14.4341 29.9888 15.7093 29.0354 16.19 27.7053H18.9415C19.4223 29.0354 20.6975 29.9888 22.1914 29.9888C24.0963 29.9888 25.6461 28.439 25.6461 26.5342C25.6461 24.6294 24.0963 23.0796 22.1914 23.0796C20.6975 23.0796 19.4223 24.033 18.9415 25.3632H16.19C15.7093 24.033 14.4341 23.0796 12.9401 23.0796C11.4962 23.0796 10.257 23.9704 9.7415 25.231C9.20484 25.018 8.81068 24.5218 8.74834 23.9136L8.4566 20.6789H21.3717C22.5172 20.6789 23.6121 20.3113 24.5381 19.6158ZM22.1916 25.4218C22.805 25.4218 23.3041 25.9208 23.3041 26.5343C23.3041 27.1478 22.805 27.6468 22.1916 27.6468C21.5781 27.6468 21.079 27.1478 21.079 26.5343C21.079 25.9208 21.5781 25.4218 22.1916 25.4218ZM12.9402 25.4218C13.5537 25.4218 14.0527 25.9208 14.0527 26.5343C14.0527 27.1478 13.5537 27.6468 12.9402 27.6468C12.3267 27.6468 11.8277 27.1478 11.8277 26.5343C11.8277 25.9208 12.3267 25.4218 12.9402 25.4218ZM8.24543 18.3369V18.3368L7.37936 8.73414H26.7367L24.2245 16.1716L24.2147 16.202C23.828 17.459 22.659 18.3369 21.3718 18.3369H8.24543Z" fill="black"/>
</svg>
