<svg width="24" height="22" viewBox="0 0 24 22" fill="none" xmlns="http://www.w3.org/2000/svg">
<path d="M10.2065 1.63397C10.9402 0.147481 13.0598 0.14748 13.7935 1.63397L15.6492 5.394C15.9405 5.98428 16.5036 6.39342 17.155 6.48808L21.3045 7.09103C22.9449 7.3294 23.5999 9.34534 22.4129 10.5024L19.4103 13.4292C18.939 13.8887 18.7239 14.5507 18.8351 15.1994L19.5439 19.3321C19.8242 20.9659 18.1093 22.2119 16.642 21.4405L12.9307 19.4893C12.348 19.183 11.652 19.183 11.0693 19.4893L7.35795 21.4405C5.8907 22.2119 4.17583 20.9659 4.45605 19.3321L5.16486 15.1994C5.27614 14.5507 5.06104 13.8887 4.58967 13.4292L1.58711 10.5024C0.400074 9.34534 1.05509 7.3294 2.69553 7.09103L6.84497 6.48808C7.49639 6.39342 8.05952 5.98428 8.35085 5.394L10.2065 1.63397Z" fill="#FFC700"/>
</svg>
