<svg width="29" height="35" viewBox="0 0 29 35" fill="none" xmlns="http://www.w3.org/2000/svg">
<path d="M24.2676 2.11914H13.7825C13.0823 0.856628 11.7363 0 10.1934 0C8.65047 0 7.30437 0.856628 6.60423 2.11914H4.72461C2.46288 2.11914 0.623047 3.95897 0.623047 6.2207V30.8984C0.623047 33.1602 2.46288 35 4.72461 35H24.2679C26.5294 35 28.3695 33.1602 28.3695 30.8984V6.2207C28.3692 3.95897 26.5294 2.11914 24.2676 2.11914ZM25.6348 30.8984C25.6348 31.6523 25.0215 32.2656 24.2676 32.2656H4.72461C3.97079 32.2656 3.35742 31.6523 3.35742 30.8984V6.2207C3.35742 5.46688 3.97079 4.85352 4.72461 4.85352H11.5605V14.6289C11.5605 15.3827 10.9472 15.9961 10.1934 15.9961C9.43954 15.9961 8.82617 15.3827 8.82617 14.6289V8.06641H6.0918V14.6289C6.0918 16.8906 7.93163 18.7305 10.1934 18.7305C12.4551 18.7305 14.2949 16.8906 14.2949 14.6289V4.85352H24.2679C25.0217 4.85352 25.6351 5.46688 25.6351 6.2207V30.8984H25.6348ZM6.0918 26.7969H17.3711V29.5312H6.0918V26.7969ZM6.0918 21.3965H22.8398V24.1309H6.0918V21.3965ZM16.9609 16.0645H22.8398V18.7988H16.9609V16.0645ZM16.9609 10.6641H22.8398V13.3984H16.9609V10.6641Z" fill="black"/>
</svg>
