<svg width="30" height="30" viewBox="0 0 30 30" fill="none" xmlns="http://www.w3.org/2000/svg">
<path d="M13.2114 0C5.92682 0 0 5.92682 0 13.2114C0 20.4963 5.92682 26.4227 13.2114 26.4227C20.4963 26.4227 26.4227 20.4963 26.4227 13.2114C26.4227 5.92682 20.4963 0 13.2114 0ZM13.2114 23.9838C7.27154 23.9838 2.43902 19.1512 2.43902 13.2114C2.43902 7.2716 7.27154 2.43902 13.2114 2.43902C19.1512 2.43902 23.9837 7.27154 23.9837 13.2114C23.9837 19.1512 19.1512 23.9838 13.2114 23.9838Z" fill="black"/>
<path d="M29.6426 27.9183L22.6507 20.9264C22.1743 20.45 21.4027 20.45 20.9263 20.9264C20.4499 21.4024 20.4499 22.1748 20.9263 22.6508L27.9182 29.6427C28.1564 29.8809 28.4682 30 28.7804 30C29.0922 30 29.4044 29.8809 29.6426 29.6427C30.119 29.1667 30.119 28.3943 29.6426 27.9183Z" fill="black"/>
</svg>
