<svg width="18" height="30" viewBox="0 0 18 30" fill="none" xmlns="http://www.w3.org/2000/svg">
<path d="M17.3338 13.8294L3.98344 0.479264C3.67467 0.170243 3.26248 0 2.82297 0C2.38346 0 1.97127 0.170243 1.66249 0.479264L0.679326 1.46218C0.0395747 2.10267 0.0395747 3.14363 0.679326 3.78314L11.89 14.9938L0.666886 26.2169C0.358109 26.5259 0.187622 26.9378 0.187622 27.3771C0.187622 27.8168 0.358109 28.2288 0.666886 28.5381L1.65005 29.5207C1.95907 29.8298 2.37102 30 2.81053 30C3.25004 30 3.66223 29.8298 3.97101 29.5207L17.3338 16.1584C17.6433 15.8484 17.8133 15.4345 17.8124 14.9945C17.8133 14.5528 17.6433 14.1392 17.3338 13.8294Z" fill="black"/>
</svg>
