<svg width="30" height="30" viewBox="0 0 30 30" fill="none" xmlns="http://www.w3.org/2000/svg">
<path d="M1.46125 3.91657L5.39136 0L13.5532 8.14832L10.3891 11.4161C10.9194 12.3575 12.0699 14.1607 14.0308 16.1215C15.9918 18.0826 17.8082 19.2463 18.7586 19.785L21.9622 16.6221L29.9966 24.6087L26.088 28.5434C24.5939 30.0375 22.3205 30.4247 20.431 29.507C17.5476 28.1066 13.196 25.5226 8.83895 21.1655C4.48198 16.8086 1.89806 12.457 0.497557 9.57356C0.165741 8.89036 0.00455093 8.15705 0.00455093 7.4285C0.00455093 6.14202 0.507341 4.87042 1.46125 3.91657ZM2.60417 8.55028C3.92616 11.2721 6.36823 15.3828 10.495 19.5096C14.6218 23.6365 18.7325 26.0784 21.4542 27.4004C22.4465 27.8823 23.6433 27.6762 24.4293 26.8901L26.6853 24.6191L21.9564 19.9187L19.2272 22.613L18.497 22.2878C18.3783 22.235 15.5542 20.9571 12.3746 17.7775C9.19285 14.5957 7.94153 11.7955 7.88985 11.6778L7.57321 10.9574L10.2663 8.17616L5.38972 3.30761L3.11605 5.57337C2.32826 6.36233 2.12242 7.55852 2.60417 8.55028Z" fill="#D02B38"/>
</svg>
