<svg width="18" height="30" viewBox="0 0 18 30" fill="none" xmlns="http://www.w3.org/2000/svg">
<path d="M0.666176 13.8294L14.0166 0.479264C14.3253 0.170243 14.7375 0 15.177 0C15.6165 0 16.0287 0.170243 16.3375 0.479264L17.3207 1.46218C17.9604 2.10267 17.9604 3.14363 17.3207 3.78314L6.11003 14.9938L17.3331 26.2169C17.6419 26.5259 17.8124 26.9378 17.8124 27.3771C17.8124 27.8168 17.6419 28.2288 17.3331 28.5381L16.35 29.5207C16.0409 29.8298 15.629 30 15.1895 30C14.75 30 14.3378 29.8298 14.029 29.5207L0.666176 16.1584C0.356667 15.8484 0.186668 15.4345 0.187645 14.9945C0.186668 14.5528 0.356667 14.1392 0.666176 13.8294Z" fill="black"/>
</svg>
