<svg width="240" height="52" viewBox="0 0 240 52" fill="none" xmlns="http://www.w3.org/2000/svg">
<path d="M22.3535 16.7949C22.3184 16.6895 22.4238 16.4258 22.6699 16.0039C22.916 15.5469 23.1797 15.002 23.4609 14.3691C23.7773 13.7012 24.0762 12.9629 24.3574 12.1543C24.6738 11.3105 24.8848 10.4492 24.9902 9.57031C25.1309 8.69141 25.1309 7.8125 24.9902 6.93359C24.8496 6.05469 24.4805 5.21094 23.8828 4.40234C23.5312 3.98047 23.0039 3.75195 22.3008 3.7168C21.6328 3.64648 20.8594 3.75195 19.9805 4.0332C19.1367 4.2793 18.2402 4.68359 17.291 5.24609C16.377 5.77344 15.5332 6.40625 14.7598 7.14453C13.9863 7.84766 13.3184 8.63867 12.7559 9.51758C12.2285 10.3965 11.9297 11.293 11.8594 12.207C11.7891 12.9453 11.8066 13.6309 11.9121 14.2637C12.0527 14.8965 12.2285 15.4766 12.4395 16.0039C12.6504 16.5312 12.8789 17.0234 13.125 17.4805C13.3711 17.9375 13.5996 18.3418 13.8105 18.6934C14.0918 19.1855 14.5312 19.7305 15.1289 20.3281C15.7266 20.9258 16.377 21.6113 17.0801 22.3848C17.7832 23.123 18.4863 23.9668 19.1895 24.916C19.8926 25.8652 20.5078 26.9375 21.0352 28.1328C21.5625 29.3281 21.9316 30.6641 22.1426 32.1406C22.3535 33.6172 22.3359 35.252 22.0898 37.0449C21.7031 39.6465 21.0879 41.8086 20.2441 43.5312C19.4004 45.2891 18.4688 46.6953 17.4492 47.75C16.4648 48.8047 15.4629 49.5605 14.4434 50.0176C13.4238 50.5098 12.5801 50.8262 11.9121 50.9668C11.3848 51.0723 10.752 51.1602 10.0137 51.2305C9.31055 51.3359 8.55469 51.3184 7.74609 51.1777C6.97266 51.0723 6.18164 50.8262 5.37305 50.4395C4.56445 50.0879 3.84375 49.5254 3.21094 48.752C2.47266 47.873 1.89258 46.9238 1.4707 45.9043C1.08398 45.0254 0.802734 44.0059 0.626953 42.8457C0.416016 41.7207 0.503906 40.543 0.890625 39.3125C1.17188 38.9961 1.4707 38.7148 1.78711 38.4688C2.10352 38.2227 2.41992 38.0117 2.73633 37.8359C3.08789 37.625 3.45703 37.4316 3.84375 37.2559C4.30078 37.1152 4.75781 36.9922 5.21484 36.8867C5.60156 36.8164 6.00586 36.7812 6.42773 36.7812C6.88477 36.7461 7.30664 36.7988 7.69336 36.9395C7.16602 37.5371 6.79688 38.0996 6.58594 38.627C6.44531 38.9082 6.33984 39.1543 6.26953 39.3652C6.12891 40.0332 6.07617 40.8242 6.11133 41.7383C6.18164 42.6875 6.375 43.584 6.69141 44.4277C7.04297 45.3066 7.53516 46.0449 8.16797 46.6426C8.80078 47.2754 9.64453 47.6094 10.6992 47.6445C13.2656 47.7148 15.4453 45.7109 17.2383 41.6328C17.8359 40.3672 18.1348 39.084 18.1348 37.7832C18.1699 36.4824 18.0117 35.2344 17.6602 34.0391C17.3438 32.8438 16.9043 31.7363 16.3418 30.7168C15.8145 29.6621 15.2695 28.7656 14.707 28.0273C14.1445 27.2891 13.459 26.498 12.6504 25.6543C11.877 24.7754 11.1035 23.8262 10.3301 22.8066C9.55664 21.7871 8.85352 20.6797 8.2207 19.4844C7.62305 18.2891 7.21875 16.9883 7.00781 15.582C6.72656 13.6133 6.90234 11.8203 7.53516 10.2031C8.20312 8.55078 9.08203 7.10938 10.1719 5.87891C11.2969 4.64844 12.5098 3.64648 13.8105 2.87305C15.1465 2.09961 16.3242 1.60742 17.3438 1.39648C23.0039 0.271484 26.7129 1.2207 28.4707 4.24414C29.209 5.4043 29.6133 6.63477 29.6836 7.93555C29.7539 9.23633 29.666 10.4492 29.4199 11.5742C29.209 12.6641 28.9277 13.5957 28.5762 14.3691C28.2598 15.1074 28.0488 15.5117 27.9434 15.582C27.7324 15.793 27.3984 16.0215 26.9414 16.2676C26.4844 16.5137 25.7461 16.7422 24.7266 16.9531C24.4453 17.0234 24.1641 17.0586 23.8828 17.0586C23.6367 17.0586 23.373 17.041 23.0918 17.0059C22.8105 16.9707 22.5645 16.9004 22.3535 16.7949ZM56.2216 30.5059C55.7295 31.209 55.0966 32.0879 54.3232 33.1426C53.5498 34.1621 52.7412 35.1992 51.8974 36.2539C51.0888 37.2734 50.2802 38.2227 49.4716 39.1016C48.6982 39.9453 48.0478 40.543 47.5205 40.8945C47.1689 41.1055 46.7646 41.2812 46.3076 41.4219C45.8505 41.5625 45.3759 41.6504 44.8838 41.6855C44.4267 41.7207 43.9873 41.6855 43.5654 41.5801C43.1435 41.5098 42.7744 41.3691 42.458 41.1582C42.1416 40.9121 41.8779 40.5605 41.667 40.1035C41.4912 39.7168 41.3154 39.207 41.1396 38.5742C40.999 37.9414 40.9463 37.1504 40.9814 36.2012C40.1377 37.6074 39.206 38.6973 38.1865 39.4707C37.167 40.209 36.2002 40.7539 35.2861 41.1055C34.2314 41.4922 33.1767 41.7207 32.122 41.791C31.6298 41.791 31.1025 41.6152 30.54 41.2637C29.9775 40.9473 29.5029 40.4375 29.1162 39.7344C28.7295 38.9961 28.4834 38.0645 28.3779 36.9395C28.2724 35.7793 28.413 34.4082 28.7998 32.8262C29.292 30.6816 30.0654 28.7305 31.1201 26.9727C32.2099 25.2148 33.3877 23.7207 34.6533 22.4902C35.9189 21.2246 37.167 20.2754 38.3974 19.6426C39.6279 19.0098 40.6474 18.7285 41.456 18.7988C42.4052 18.9746 43.1787 19.2559 43.7763 19.6426C44.2685 19.9941 44.5849 20.5215 44.7255 21.2246C44.9013 21.8926 44.6201 22.7891 43.8818 23.9141C44.374 23.8086 44.7783 23.7383 45.0947 23.7031C45.4463 23.668 45.7099 23.6504 45.8857 23.6504C46.0966 23.6504 46.2373 23.668 46.3076 23.7031C46.3427 23.7734 46.3603 23.9316 46.3603 24.1777C46.3603 24.3887 46.3076 24.793 46.2021 25.3906C46.0966 25.9883 45.9384 26.7969 45.7275 27.8164C45.5166 28.8359 45.2353 30.1543 44.8838 31.7715C44.8134 32.0879 44.7431 32.3867 44.6728 32.668C44.6377 32.9141 44.5849 33.1777 44.5146 33.459C44.4795 33.7051 44.4267 34.0039 44.3564 34.3555C44.2861 34.707 44.1982 35.1465 44.0927 35.6738C44.0576 35.9902 44.04 36.3418 44.04 36.7285C44.0752 37.0801 44.1455 37.4141 44.2509 37.7305C44.3564 38.0469 44.5146 38.3105 44.7255 38.5215C44.9716 38.6973 45.3056 38.7852 45.7275 38.7852C46.0791 38.7852 46.5361 38.5742 47.0986 38.1523C47.6611 37.6953 48.2588 37.1328 48.8916 36.4648C49.5244 35.7617 50.1748 35.0059 50.8427 34.1973C51.5459 33.3535 52.1963 32.5449 52.7939 31.7715C53.3916 30.998 53.9189 30.3125 54.3759 29.7148C54.8681 29.1172 55.2197 28.6777 55.4306 28.3965C55.7119 28.0801 55.9931 27.9043 56.2744 27.8691C56.5556 27.7988 56.7666 27.8691 56.9072 28.0801C57.0478 28.291 57.0654 28.6074 56.9599 29.0293C56.8896 29.4512 56.6435 29.9434 56.2216 30.5059ZM40.7705 32.8262C40.9463 32.123 41.1572 31.2969 41.4033 30.3477C41.6494 29.3984 41.8603 28.4844 42.0361 27.6055C42.2119 26.7266 42.3349 26.0059 42.4052 25.4434C42.5107 24.8457 42.4931 24.5645 42.3525 24.5996C42.1767 24.6348 41.9834 24.6875 41.7724 24.7578C41.5966 24.8281 41.3681 24.8809 41.0869 24.916C40.8056 24.9512 40.5244 25.0039 40.2431 25.0742C40.5244 24.5117 40.6826 24.0547 40.7177 23.7031C40.788 23.3164 40.8056 23.0176 40.7705 22.8066C40.7353 22.5605 40.665 22.3672 40.5595 22.2266C40.1728 21.9102 39.4873 22.1738 38.5029 23.0176C37.5537 23.8262 36.4463 25.3379 35.1806 27.5527C34.6533 28.4668 34.2314 29.4512 33.915 30.5059C33.5986 31.5254 33.3701 32.4922 33.2295 33.4062C33.124 34.3203 33.1064 35.1289 33.1767 35.832C33.247 36.5 33.3877 36.9395 33.5986 37.1504C33.9853 37.5371 34.4248 37.7305 34.917 37.7305C35.4091 37.6953 35.9013 37.5547 36.3935 37.3086C36.9209 37.0273 37.4306 36.6758 37.9228 36.2539C38.4502 35.832 38.9072 35.3926 39.2939 34.9355C39.7158 34.4785 40.0498 34.0566 40.2959 33.6699C40.5771 33.2832 40.7353 33.002 40.7705 32.8262ZM52.4374 40.1562C53.9843 33.6523 55.2148 28.4316 56.1288 24.4941C57.078 20.5566 57.7988 17.5508 58.2909 15.4766C58.8534 13.0156 59.2402 11.3105 59.4511 10.3613C59.5566 9.69336 59.6445 9.04297 59.7148 8.41016C59.7851 7.84766 59.8202 7.26758 59.8202 6.66992C59.8202 6.07227 59.7675 5.52734 59.662 5.03516C59.9433 4.85937 60.2421 4.71875 60.5585 4.61328C60.9101 4.50781 61.2441 4.41992 61.5605 4.34961C61.9472 4.24414 62.3339 4.15625 62.7206 4.08594C63.1073 4.01562 63.4589 3.98047 63.7753 3.98047C64.0566 3.98047 64.3202 4.01562 64.5663 4.08594C64.8124 4.12109 64.9706 4.22656 65.0409 4.40234C65.2519 4.57813 65.3398 4.92969 65.3046 5.45703C65.3046 5.98438 65.2695 6.5293 65.1991 7.0918C65.0585 7.75977 64.9003 8.48047 64.7245 9.25391C64.3027 10.7656 63.7226 12.9453 62.9843 15.793C62.3515 18.2188 61.4902 21.5234 60.4003 25.707C59.3456 29.8906 58.0097 35.1641 56.3925 41.5273C56.2167 41.7031 56.0058 41.8262 55.7597 41.8965C55.5136 41.9668 55.2851 42.002 55.0741 42.002C54.828 42.002 54.5644 41.9844 54.2831 41.9492C54.037 41.8789 53.7909 41.7734 53.5448 41.6328C53.3339 41.4922 53.123 41.2988 52.912 41.0527C52.7011 40.8418 52.5429 40.543 52.4374 40.1562ZM89.4696 30.0312C88.4149 31.5781 87.2196 33.0898 85.8837 34.5664C84.5477 36.0078 83.1239 37.3086 81.6122 38.4688C80.1356 39.5938 78.6063 40.5078 77.0243 41.2109C75.4774 41.9141 73.9657 42.2656 72.4891 42.2656C71.7157 42.2656 70.872 42.0723 69.9579 41.6855C69.079 41.334 68.2704 40.7715 67.5321 39.998C66.7938 39.2246 66.1962 38.2227 65.7391 36.9922C65.3173 35.7617 65.1942 34.2676 65.37 32.5098C65.5106 31.0684 65.9501 29.5566 66.6884 27.9746C67.4618 26.3574 68.3934 24.8809 69.4833 23.5449C70.6083 22.209 71.8563 21.1016 73.2274 20.2227C74.6337 19.3438 76.0399 18.9043 77.4462 18.9043C78.7821 18.9043 79.7489 19.2383 80.3466 19.9062C80.9442 20.5742 81.2079 21.4004 81.1376 22.3848C81.0321 23.4746 80.7157 24.4766 80.1884 25.3906C79.6962 26.3047 79.0985 27.1309 78.3954 27.8691C77.6923 28.6074 76.9364 29.2754 76.1278 29.873C75.3544 30.4707 74.6161 31.0156 73.913 31.5078C73.1395 32.0352 72.4012 32.5449 71.6981 33.0371C70.995 33.4941 70.3798 33.916 69.8524 34.3027C69.8876 35.1816 70.0458 35.9199 70.327 36.5176C70.6083 37.1152 70.9598 37.6074 71.3817 37.9941C71.8036 38.3457 72.2782 38.6094 72.8055 38.7852C73.368 38.9258 73.9305 38.9961 74.493 38.9961C75.6884 38.9961 76.9364 38.627 78.2372 37.8887C79.538 37.1152 80.8036 36.2012 82.0341 35.1465C83.2997 34.0566 84.4598 32.9316 85.5145 31.7715C86.6044 30.6113 87.5009 29.6094 88.204 28.7656C88.4501 28.4844 88.6962 28.3262 88.9423 28.291C89.2235 28.2207 89.4345 28.2559 89.5751 28.3965C89.7509 28.502 89.8387 28.7129 89.8387 29.0293C89.8387 29.3105 89.7157 29.6445 89.4696 30.0312ZM75.9696 21.9102C75.5477 21.9102 75.038 22.1211 74.4403 22.543C73.8778 22.9648 73.3153 23.5801 72.7528 24.3887C72.1903 25.1621 71.663 26.1289 71.1708 27.2891C70.6786 28.4141 70.3095 29.7148 70.0634 31.1914C70.4852 30.875 70.9423 30.5586 71.4345 30.2422C71.9266 29.8906 72.4188 29.5215 72.911 29.1348C74.4227 27.9746 75.4774 26.9551 76.0751 26.0762C76.6727 25.1973 77.0067 24.4414 77.077 23.8086C77.1473 23.1406 77.077 22.666 76.8661 22.3848C76.6552 22.0684 76.3563 21.9102 75.9696 21.9102Z" fill="#D02B38"/>
<path d="M110.787 38.5742C110.787 37.8359 110.857 36.9922 110.998 36.043C111.174 35.0938 111.385 34.127 111.631 33.1426C111.877 32.123 112.123 31.1387 112.369 30.1895C112.615 29.2402 112.826 28.3965 113.002 27.6582C113.213 26.7441 113.195 26.041 112.949 25.5488C112.703 25.0566 112.281 24.8105 111.683 24.8105C111.402 24.8105 110.84 25.0566 109.996 25.5488C109.187 26.041 108.291 26.9023 107.306 28.1328C106.357 29.3281 105.408 30.9629 104.459 33.0371C103.545 35.0762 102.824 37.6777 102.297 40.8418C101.629 41.1934 100.996 41.4219 100.398 41.5273C100.082 41.5977 99.8006 41.6504 99.5545 41.6855C98.8514 41.7207 98.3944 41.5977 98.1834 41.3164C97.9725 41.0703 98.0077 40.4375 98.2889 39.418C98.4295 38.9258 98.6756 38.1348 99.0272 37.0449C99.4139 35.9551 99.7831 34.7773 100.135 33.5117C100.486 32.2109 100.785 30.9277 101.031 29.6621C101.312 28.3613 101.453 27.2363 101.453 26.2871C101.453 25.6191 101.33 25.1621 101.084 24.916C100.873 24.6699 100.556 24.5469 100.135 24.5469C99.8182 24.5469 99.2909 24.7227 98.5526 25.0742C97.8143 25.4258 96.9881 26.1113 96.0741 27.1309C95.16 28.1504 94.2459 29.5742 93.3319 31.4023C92.453 33.1953 91.6971 35.5332 91.0643 38.416V38.3105C90.994 38.5918 90.9237 38.873 90.8534 39.1543C90.7831 39.4004 90.7303 39.6641 90.6952 39.9453C90.66 40.2266 90.6073 40.4902 90.537 40.7363L87.9002 41.8965C87.7245 41.9668 87.4959 42.0195 87.2147 42.0547C86.9686 42.0898 86.7225 42.0371 86.4764 41.8965C86.2655 41.791 86.1073 41.5449 86.0018 41.1582C85.8963 40.7715 85.9315 40.1914 86.1073 39.418L89.4295 25.6543C89.535 25.1973 89.6229 24.7578 89.6932 24.3359C89.7635 23.9492 89.7987 23.5801 89.7987 23.2285C89.8338 22.8418 89.8163 22.5254 89.7459 22.2793C90.3436 21.998 90.8709 21.7871 91.328 21.6465C91.785 21.5059 92.1541 21.4004 92.4354 21.3301C92.787 21.2246 93.0858 21.1719 93.3319 21.1719C94.4569 21.1719 94.826 22.1387 94.4393 24.0723C94.2987 24.6348 94.0877 25.4609 93.8065 26.5508C94.4745 25.707 95.1776 24.916 95.9159 24.1777C96.6893 23.4043 97.4627 22.7188 98.2362 22.1211C99.0096 21.5234 99.7831 21.0488 100.556 20.6973C101.365 20.3457 102.156 20.1699 102.93 20.1699C103.527 20.1699 104.019 20.3457 104.406 20.6973C104.828 21.0488 105.144 21.5234 105.355 22.1211C105.601 22.6836 105.742 23.3691 105.777 24.1777C105.812 24.9512 105.777 25.7598 105.672 26.6035C106.234 25.8652 106.849 25.127 107.517 24.3887C108.221 23.6152 108.941 22.9297 109.68 22.332C110.453 21.7344 111.244 21.2422 112.053 20.8555C112.861 20.4688 113.67 20.2754 114.478 20.2754C115.428 20.2754 116.148 20.5566 116.64 21.1191C117.168 21.6816 117.519 22.4023 117.695 23.2812C117.906 24.1602 117.959 25.1094 117.853 26.1289C117.783 27.1484 117.642 28.1328 117.431 29.082L115.639 36.2012C115.252 37.959 115.621 38.8379 116.746 38.8379C117.625 38.8379 118.592 38.416 119.646 37.5723C120.701 36.7285 121.721 35.7266 122.705 34.5664C123.724 33.4062 124.674 32.2109 125.553 30.9805C126.431 29.75 127.17 28.7656 127.767 28.0273C127.978 27.7812 128.189 27.6406 128.4 27.6055C128.646 27.5703 128.84 27.623 128.98 27.7637C129.156 27.8691 129.244 28.0625 129.244 28.3438C129.279 28.625 129.191 28.9766 128.98 29.3984C128.277 30.6289 127.416 32 126.396 33.5117C125.377 34.9883 124.252 36.377 123.021 37.6777C121.826 38.9785 120.543 40.0684 119.172 40.9473C117.801 41.8262 116.377 42.2656 114.9 42.2656C114.408 42.2656 113.916 42.2129 113.424 42.1074C112.967 42.002 112.527 41.8086 112.105 41.5273C111.719 41.2461 111.402 40.877 111.156 40.4199C110.91 39.9277 110.787 39.3125 110.787 38.5742ZM152.565 30.5059C152.073 31.209 151.44 32.0879 150.667 33.1426C149.893 34.1621 149.085 35.1992 148.241 36.2539C147.432 37.2734 146.624 38.2227 145.815 39.1016C145.042 39.9453 144.391 40.543 143.864 40.8945C143.512 41.1055 143.108 41.2812 142.651 41.4219C142.194 41.5625 141.72 41.6504 141.227 41.6855C140.77 41.7207 140.331 41.6855 139.909 41.5801C139.487 41.5098 139.118 41.3691 138.802 41.1582C138.485 40.9121 138.221 40.5605 138.011 40.1035C137.835 39.7168 137.659 39.207 137.483 38.5742C137.343 37.9414 137.29 37.1504 137.325 36.2012C136.481 37.6074 135.55 38.6973 134.53 39.4707C133.511 40.209 132.544 40.7539 131.63 41.1055C130.575 41.4922 129.52 41.7207 128.466 41.791C127.973 41.791 127.446 41.6152 126.884 41.2637C126.321 40.9473 125.846 40.4375 125.46 39.7344C125.073 38.9961 124.827 38.0645 124.721 36.9395C124.616 35.7793 124.757 34.4082 125.143 32.8262C125.636 30.6816 126.409 28.7305 127.464 26.9727C128.554 25.2148 129.731 23.7207 130.997 22.4902C132.262 21.2246 133.511 20.2754 134.741 19.6426C135.971 19.0098 136.991 18.7285 137.8 18.7988C138.749 18.9746 139.522 19.2559 140.12 19.6426C140.612 19.9941 140.929 20.5215 141.069 21.2246C141.245 21.8926 140.964 22.7891 140.225 23.9141C140.718 23.8086 141.122 23.7383 141.438 23.7031C141.79 23.668 142.054 23.6504 142.229 23.6504C142.44 23.6504 142.581 23.668 142.651 23.7031C142.686 23.7734 142.704 23.9316 142.704 24.1777C142.704 24.3887 142.651 24.793 142.546 25.3906C142.44 25.9883 142.282 26.7969 142.071 27.8164C141.86 28.8359 141.579 30.1543 141.227 31.7715C141.157 32.0879 141.087 32.3867 141.016 32.668C140.981 32.9141 140.929 33.1777 140.858 33.459C140.823 33.7051 140.77 34.0039 140.7 34.3555C140.63 34.707 140.542 35.1465 140.436 35.6738C140.401 35.9902 140.384 36.3418 140.384 36.7285C140.419 37.0801 140.489 37.4141 140.595 37.7305C140.7 38.0469 140.858 38.3105 141.069 38.5215C141.315 38.6973 141.649 38.7852 142.071 38.7852C142.423 38.7852 142.88 38.5742 143.442 38.1523C144.005 37.6953 144.602 37.1328 145.235 36.4648C145.868 35.7617 146.518 35.0059 147.186 34.1973C147.889 33.3535 148.54 32.5449 149.137 31.7715C149.735 30.998 150.262 30.3125 150.72 29.7148C151.212 29.1172 151.563 28.6777 151.774 28.3965C152.055 28.0801 152.337 27.9043 152.618 27.8691C152.899 27.7988 153.11 27.8691 153.251 28.0801C153.391 28.291 153.409 28.6074 153.304 29.0293C153.233 29.4512 152.987 29.9434 152.565 30.5059ZM137.114 32.8262C137.29 32.123 137.501 31.2969 137.747 30.3477C137.993 29.3984 138.204 28.4844 138.38 27.6055C138.555 26.7266 138.679 26.0059 138.749 25.4434C138.854 24.8457 138.837 24.5645 138.696 24.5996C138.52 24.6348 138.327 24.6875 138.116 24.7578C137.94 24.8281 137.712 24.8809 137.43 24.916C137.149 24.9512 136.868 25.0039 136.587 25.0742C136.868 24.5117 137.026 24.0547 137.061 23.7031C137.132 23.3164 137.149 23.0176 137.114 22.8066C137.079 22.5605 137.009 22.3672 136.903 22.2266C136.516 21.9102 135.831 22.1738 134.846 23.0176C133.897 23.8262 132.79 25.3379 131.524 27.5527C130.997 28.4668 130.575 29.4512 130.259 30.5059C129.942 31.5254 129.714 32.4922 129.573 33.4062C129.468 34.3203 129.45 35.1289 129.52 35.832C129.591 36.5 129.731 36.9395 129.942 37.1504C130.329 37.5371 130.768 37.7305 131.261 37.7305C131.753 37.6953 132.245 37.5547 132.737 37.3086C133.264 37.0273 133.774 36.6758 134.266 36.2539C134.794 35.832 135.251 35.3926 135.637 34.9355C136.059 34.4785 136.393 34.0566 136.639 33.6699C136.921 33.2832 137.079 33.002 137.114 32.8262ZM147.568 40.7363C147.322 41.123 147.058 41.3691 146.777 41.4746C146.461 41.6152 146.197 41.6328 145.986 41.5273C145.74 41.457 145.582 41.2812 145.511 41C145.441 40.7188 145.511 40.3672 145.722 39.9453C145.828 39.7344 146.074 39.2598 146.461 38.5215C146.812 37.7832 147.252 36.9043 147.779 35.8848C148.271 34.8301 148.816 33.7051 149.414 32.5098C150.011 31.2793 150.574 30.1191 151.101 29.0293C151.664 27.9395 152.174 26.9727 152.631 26.1289C153.088 25.25 153.422 24.6172 153.633 24.2305C153.246 23.8789 152.982 23.6328 152.842 23.4922C152.701 23.3164 152.595 22.9648 152.525 22.4375C152.455 21.9805 152.56 21.3828 152.842 20.6445C153.123 19.9062 153.492 19.2031 153.949 18.5352C154.406 17.832 154.916 17.2344 155.478 16.7422C156.041 16.25 156.586 16.0039 157.113 16.0039C158.097 16.0039 158.783 16.3203 159.17 16.9531C159.592 17.5859 159.838 18.2363 159.908 18.9043C159.978 19.3613 159.943 19.9414 159.803 20.6445C159.662 21.3477 159.398 21.9805 159.011 22.543C159.117 22.6133 159.258 22.7012 159.433 22.8066C159.609 22.877 159.89 22.9121 160.277 22.9121C160.84 22.9121 161.226 22.877 161.437 22.8066C161.683 22.7363 162.053 22.7012 162.545 22.7012C163.142 22.7012 163.635 22.8594 164.021 23.1758C164.408 23.457 164.724 23.8262 164.97 24.2832C165.217 24.7051 165.392 25.1797 165.498 25.707C165.638 26.1992 165.726 26.6562 165.761 27.0781C165.867 27.957 165.638 28.8711 165.076 29.8203C164.513 30.7695 163.828 31.8066 163.019 32.9316C162.527 33.6348 162.035 34.4258 161.543 35.3047C161.051 36.1836 160.84 36.9746 160.91 37.6777C160.98 38.1348 161.103 38.5039 161.279 38.7852C161.455 39.0664 161.947 39.207 162.756 39.207C163.353 39.207 164.004 38.9961 164.707 38.5742C165.445 38.1172 166.183 37.5547 166.922 36.8867C167.695 36.1836 168.451 35.4277 169.189 34.6191C169.928 33.7754 170.613 32.9668 171.246 32.1934C171.879 31.3848 172.406 30.6641 172.828 30.0312C173.285 29.3984 173.619 28.9414 173.83 28.6602C174.006 28.3789 174.234 28.1855 174.515 28.0801C174.797 27.9746 175.043 27.9746 175.254 28.0801C175.465 28.1855 175.588 28.3965 175.623 28.7129C175.693 29.0293 175.57 29.4512 175.254 29.9785C175.043 30.3301 174.674 30.8926 174.146 31.666C173.654 32.4395 173.039 33.3008 172.301 34.25C171.597 35.1992 170.806 36.1836 169.928 37.2031C169.049 38.1875 168.117 39.1016 167.133 39.9453C166.183 40.7539 165.217 41.4219 164.232 41.9492C163.283 42.4766 162.369 42.7402 161.49 42.7402C160.576 42.7402 159.82 42.5645 159.222 42.2129C158.625 41.8613 158.133 41.4395 157.746 40.9473C157.394 40.4199 157.131 39.8574 156.955 39.2598C156.814 38.627 156.761 38.0469 156.797 37.5195C156.832 37.0977 156.937 36.6582 157.113 36.2012C157.324 35.709 157.553 35.2168 157.799 34.7246C158.08 34.1973 158.361 33.6875 158.642 33.1953C158.959 32.668 159.24 32.1582 159.486 31.666C160.084 30.6465 160.558 29.7852 160.91 29.082C161.297 28.3438 161.49 27.7285 161.49 27.2363C161.49 26.9199 161.42 26.6387 161.279 26.3926C161.138 26.1465 160.91 26.0234 160.594 26.0234C160.383 26.0234 160.224 26.041 160.119 26.0762C160.049 26.0762 159.961 26.0762 159.855 26.0762C159.785 26.0762 159.662 26.0938 159.486 26.1289C159.345 26.1289 159.117 26.1289 158.801 26.1289C158.344 26.1289 157.957 26.0586 157.64 25.918C157.324 25.7773 157.025 25.6719 156.744 25.6016C156.603 25.8477 156.287 26.375 155.795 27.1836C155.303 27.9922 154.722 28.9414 154.054 30.0312C153.422 31.1211 152.736 32.2637 151.998 33.459C151.295 34.6543 150.627 35.7793 149.994 36.834C149.361 37.8535 148.834 38.7324 148.412 39.4707C147.955 40.1738 147.674 40.5957 147.568 40.7363ZM199.102 30.5059C198.294 31.8418 197.362 33.2305 196.307 34.6719C195.288 36.0781 194.198 37.3789 193.038 38.5742C191.878 39.7344 190.682 40.7012 189.452 41.4746C188.221 42.248 186.991 42.6348 185.76 42.6348C184.53 42.6348 183.634 42.2129 183.071 41.3691C182.544 40.5605 182.298 39.6465 182.333 38.627C182.333 38.1699 182.368 37.7656 182.438 37.4141C182.544 37.0625 182.649 36.7461 182.755 36.4648C182.86 36.1836 182.966 35.9023 183.071 35.6211C183.212 35.3047 183.335 34.9531 183.44 34.5664C183.581 34.1094 183.581 33.7051 183.44 33.3535C183.335 32.9668 183.194 32.6328 183.018 32.3516C182.702 32.7031 182.333 33.0195 181.911 33.3008C181.524 33.5469 181.032 33.6699 180.434 33.6699C180.012 33.6699 179.626 33.4766 179.274 33.0898C178.923 32.668 178.747 32.1582 178.747 31.5605C178.747 31.0684 178.852 30.6641 179.063 30.3477C179.309 30.0312 179.573 29.7852 179.854 29.6094C180.171 29.4336 180.487 29.3105 180.803 29.2402C181.12 29.1699 181.384 29.1348 181.594 29.1348C181.7 29.1348 181.911 29.1523 182.227 29.1875C182.579 29.2227 182.948 29.2754 183.335 29.3457C184.6 28.3262 185.497 27.4121 186.024 26.6035C186.587 25.7598 186.639 25.0039 186.182 24.3359C185.901 23.8789 185.55 23.6504 185.128 23.6504C184.706 23.6152 184.266 23.7207 183.809 23.9668C183.352 24.1777 182.895 24.459 182.438 24.8105C182.016 25.1621 181.63 25.4961 181.278 25.8125C180.575 26.5156 179.784 27.3594 178.905 28.3438C178.061 29.293 177.358 30.084 176.796 30.7168C176.55 31.7715 176.303 32.8789 176.057 34.0391C175.846 35.0586 175.6 36.2188 175.319 37.5195C175.073 38.7852 174.809 40.1035 174.528 41.4746C174.317 41.5801 174.089 41.6504 173.842 41.6855C173.632 41.7559 173.438 41.8086 173.262 41.8438C173.051 41.8789 172.841 41.8965 172.63 41.8965C172.348 41.8965 172.085 41.8789 171.839 41.8438C171.592 41.8438 171.399 41.7559 171.259 41.5801C171.083 41.4395 170.995 41.1934 170.995 40.8418C170.96 40.4902 171.048 39.998 171.259 39.3652C171.54 38.4512 171.891 37.2383 172.313 35.7266C172.735 34.1797 173.175 32.4922 173.632 30.6641C174.089 28.8359 174.546 26.9375 175.003 24.9688C175.495 22.9648 175.952 21.0664 176.374 19.2734C176.796 17.4453 177.147 15.8105 177.428 14.3691C177.745 12.8926 177.973 11.7324 178.114 10.8887C178.219 9.97461 178.325 9.0957 178.43 8.25195C178.501 7.54883 178.536 6.86328 178.536 6.19531C178.571 5.49219 178.536 4.96484 178.43 4.61328C178.606 4.4375 178.852 4.2793 179.169 4.13867C179.485 3.99805 179.837 3.89258 180.223 3.82227C180.61 3.7168 181.067 3.62891 181.594 3.55859C182.192 3.48828 182.684 3.4707 183.071 3.50586C183.493 3.54102 183.792 3.7168 183.967 4.0332C184.178 4.38477 184.214 4.98242 184.073 5.82617C183.967 6.63477 183.721 7.77734 183.335 9.25391C182.842 11.1523 182.333 12.8926 181.805 14.4746C181.313 16.0215 180.821 17.4805 180.329 18.8516C179.872 20.2227 179.415 21.5586 178.958 22.8594C178.536 24.125 178.149 25.4258 177.798 26.7617C178.501 25.7422 179.38 24.6699 180.434 23.5449C181.489 22.3848 182.684 21.4355 184.02 20.6973C185.426 19.959 186.587 19.5898 187.501 19.5898C188.626 19.5898 189.434 19.9766 189.926 20.75C190.419 21.4883 190.647 22.3672 190.612 23.3867C190.577 24.1953 190.366 24.9512 189.979 25.6543C189.628 26.3223 189.188 26.9551 188.661 27.5527C188.134 28.1152 187.571 28.6074 186.973 29.0293C186.376 29.4512 185.866 29.8027 185.444 30.084C185.936 30.3652 186.358 30.752 186.71 31.2441C187.096 31.7012 187.272 32.2812 187.237 32.9844C187.202 33.9336 187.009 34.7773 186.657 35.5156C186.341 36.2188 186.182 36.8691 186.182 37.4668C186.217 37.9238 186.305 38.2578 186.446 38.4688C186.622 38.6797 186.973 38.7852 187.501 38.7852C188.45 38.7852 189.434 38.3809 190.454 37.5723C191.509 36.7637 192.493 35.832 193.407 34.7773C194.321 33.7227 195.165 32.6855 195.938 31.666C196.712 30.6113 197.309 29.8379 197.731 29.3457C198.329 28.7129 198.821 28.5547 199.208 28.8711C199.63 29.1523 199.594 29.6973 199.102 30.5059ZM220.261 30.0312C219.207 31.5781 218.011 33.0898 216.675 34.5664C215.34 36.0078 213.916 37.3086 212.404 38.4688C210.927 39.5938 209.398 40.5078 207.816 41.2109C206.269 41.9141 204.758 42.2656 203.281 42.2656C202.508 42.2656 201.664 42.0723 200.75 41.6855C199.871 41.334 199.062 40.7715 198.324 39.998C197.586 39.2246 196.988 38.2227 196.531 36.9922C196.109 35.7617 195.986 34.2676 196.162 32.5098C196.302 31.0684 196.742 29.5566 197.48 27.9746C198.254 26.3574 199.185 24.8809 200.275 23.5449C201.4 22.209 202.648 21.1016 204.019 20.2227C205.425 19.3438 206.832 18.9043 208.238 18.9043C209.574 18.9043 210.541 19.2383 211.138 19.9062C211.736 20.5742 212 21.4004 211.929 22.3848C211.824 23.4746 211.508 24.4766 210.98 25.3906C210.488 26.3047 209.89 27.1309 209.187 27.8691C208.484 28.6074 207.728 29.2754 206.92 29.873C206.146 30.4707 205.408 31.0156 204.705 31.5078C203.931 32.0352 203.193 32.5449 202.49 33.0371C201.787 33.4941 201.172 33.916 200.644 34.3027C200.679 35.1816 200.838 35.9199 201.119 36.5176C201.4 37.1152 201.752 37.6074 202.174 37.9941C202.595 38.3457 203.07 38.6094 203.597 38.7852C204.16 38.9258 204.722 38.9961 205.285 38.9961C206.48 38.9961 207.728 38.627 209.029 37.8887C210.33 37.1152 211.595 36.2012 212.826 35.1465C214.091 34.0566 215.252 32.9316 216.306 31.7715C217.396 30.6113 218.293 29.6094 218.996 28.7656C219.242 28.4844 219.488 28.3262 219.734 28.291C220.015 28.2207 220.226 28.2559 220.367 28.3965C220.543 28.502 220.631 28.7129 220.631 29.0293C220.631 29.3105 220.508 29.6445 220.261 30.0312ZM206.761 21.9102C206.34 21.9102 205.83 22.1211 205.232 22.543C204.67 22.9648 204.107 23.5801 203.545 24.3887C202.982 25.1621 202.455 26.1289 201.963 27.2891C201.47 28.4141 201.101 29.7148 200.855 31.1914C201.277 30.875 201.734 30.5586 202.226 30.2422C202.718 29.8906 203.211 29.5215 203.703 29.1348C205.215 27.9746 206.269 26.9551 206.867 26.0762C207.465 25.1973 207.799 24.4414 207.869 23.8086C207.939 23.1406 207.869 22.666 207.658 22.3848C207.447 22.0684 207.148 21.9102 206.761 21.9102ZM236.464 27.6582C236.604 27.4473 236.78 27.3242 236.991 27.2891C237.237 27.2188 237.43 27.2363 237.571 27.3418C237.712 27.4473 237.782 27.623 237.782 27.8691C237.817 28.1152 237.729 28.4492 237.518 28.8711C236.815 30.207 235.883 31.6484 234.723 33.1953C233.598 34.7422 232.403 36.2012 231.137 37.5723C229.872 38.9082 228.641 40.0156 227.446 40.8945C226.251 41.7734 225.249 42.2129 224.44 42.2129C223.28 42.2129 222.313 41.9844 221.54 41.5273C220.766 41.0703 220.151 40.5078 219.694 39.8398C219.272 39.1719 218.973 38.4512 218.798 37.6777C218.622 36.8691 218.569 36.1309 218.639 35.4629C218.674 34.9004 218.798 33.8984 219.008 32.457C219.219 30.9805 219.501 29.293 219.852 27.3945C220.204 25.4609 220.59 23.4043 221.012 21.2246C221.469 19.0098 221.944 16.8828 222.436 14.8438C221.839 14.9141 221.241 14.9844 220.643 15.0547C220.046 15.125 219.501 15.1602 219.008 15.1602C217.883 15.1602 216.829 15.0371 215.844 14.791C214.825 14.5098 214.069 14.2461 213.577 14C213.296 13.8594 213.173 13.666 213.208 13.4199C213.243 13.1387 213.348 12.875 213.524 12.6289C213.7 12.3477 213.928 12.1191 214.21 11.9434C214.456 11.7324 214.684 11.627 214.895 11.627C215.563 11.6973 216.284 11.7676 217.057 11.8379C217.831 11.873 218.674 11.873 219.589 11.8379C220.256 11.8027 220.889 11.75 221.487 11.6797C222.12 11.6094 222.735 11.5215 223.333 11.416C223.79 9.72852 224.229 8.26953 224.651 7.03906C225.108 5.77344 225.512 4.89453 225.864 4.40234C225.969 4.22656 226.198 4.08594 226.549 3.98047C226.936 3.83984 227.34 3.75195 227.762 3.7168C228.184 3.64648 228.589 3.64648 228.975 3.7168C229.362 3.75195 229.643 3.875 229.819 4.08594C229.995 4.36719 230.065 5.08789 230.03 6.24805C229.995 7.4082 229.801 8.88477 229.45 10.6777C230.926 10.6777 232.227 10.7656 233.352 10.9414C234.512 11.082 235.497 11.2578 236.305 11.4688C237.114 11.6445 237.764 11.8379 238.256 12.0488C238.749 12.2246 239.118 12.3477 239.364 12.418C239.61 12.4883 239.733 12.6641 239.733 12.9453C239.768 13.2266 239.715 13.5254 239.575 13.8418C239.469 14.123 239.276 14.3691 238.995 14.5801C238.714 14.791 238.397 14.8613 238.046 14.791C237.694 14.7559 237.29 14.6855 236.833 14.5801C236.411 14.4746 235.883 14.3867 235.251 14.3164C234.653 14.2461 233.932 14.1758 233.089 14.1055C232.245 14.0352 231.26 14 230.135 14C229.924 14 229.678 14.0176 229.397 14.0527C229.151 14.0527 228.887 14.0527 228.606 14.0527C228.465 14.6152 228.325 15.1777 228.184 15.7402C228.079 16.2676 227.921 16.8301 227.71 17.4277C227.253 18.834 226.725 20.3633 226.128 22.0156C225.6 23.457 224.967 25.1094 224.229 26.9727C223.491 28.8359 222.665 30.8223 221.751 32.9316C221.54 34.4434 221.557 35.6035 221.803 36.4121C222.085 37.1855 222.419 37.748 222.805 38.0996C223.262 38.4863 223.825 38.6973 224.493 38.7324C225.02 38.8027 225.653 38.627 226.391 38.2051C227.165 37.748 227.956 37.1504 228.764 36.4121C229.573 35.6738 230.381 34.8652 231.19 33.9863C232.034 33.1074 232.807 32.2461 233.51 31.4023C234.214 30.5586 234.829 29.8027 235.356 29.1348C235.883 28.4316 236.253 27.9395 236.464 27.6582Z" fill="black"/>
</svg>
