<svg width="20" height="12" viewBox="0 0 20 12" fill="none" xmlns="http://www.w3.org/2000/svg">
<path d="M10.7804 11.5559L19.6805 2.65567C19.8865 2.44982 20 2.17502 20 1.88202C20 1.58901 19.8865 1.31422 19.6805 1.10837L19.0252 0.452924C18.5982 0.0264238 17.9042 0.0264237 17.4779 0.452924L10.0041 7.92668L2.52209 0.444631C2.31608 0.238779 2.04145 0.125121 1.7486 0.125121C1.45543 0.125121 1.1808 0.238779 0.974625 0.444631L0.319508 1.10007C0.113495 1.30609 -6.36262e-08 1.58072 -7.64339e-08 1.87372C-8.92416e-08 2.16673 0.113495 2.44152 0.319507 2.64738L9.22773 11.5559C9.43439 11.7623 9.71033 11.8756 10.0037 11.8749C10.2981 11.8756 10.5739 11.7623 10.7804 11.5559Z" fill="black"/>
</svg>
