<svg width="70" height="67" viewBox="0 0 70 67" fill="none" xmlns="http://www.w3.org/2000/svg">
<path d="M33.9199 4.31843C34.402 3.49059 35.598 3.49059 36.0801 4.31843L44.6678 19.0626L47.0441 17.6785L44.6678 19.0626C45.6216 20.7001 47.2198 21.8613 49.072 22.2624L65.7482 25.8736C66.6845 26.0763 67.0541 27.2137 66.4158 27.9281L55.047 40.6517C53.7844 42.0648 53.1739 43.9437 53.3648 45.8291L55.0836 62.8051C55.1801 63.7582 54.2126 64.4612 53.3359 64.0748L37.7219 57.1943L36.7048 59.5024L37.7219 57.1943C35.9878 56.4301 34.0122 56.4301 32.2781 57.1943L16.6641 64.0748C15.7874 64.4612 14.8199 63.7582 14.9164 62.8051L16.6352 45.8291C16.8261 43.9437 16.2156 42.0648 14.953 40.6517L3.5842 27.9281C2.94588 27.2137 3.31544 26.0763 4.25176 25.8736L20.928 22.2624C22.7802 21.8613 24.3784 20.7001 25.3322 19.0626L33.9199 4.31843Z" stroke="#D02B38" stroke-width="5.5"/>
</svg>
