<svg width="31" height="31" viewBox="0 0 31 31" fill="none" xmlns="http://www.w3.org/2000/svg">
<path d="M13.6973 1.75131C14.4238 0.239654 16.5763 0.239658 17.3027 1.75132L20.4779 8.35895C20.7651 8.95651 21.3297 9.37294 21.9854 9.47079L29.1717 10.5433C30.7956 10.7856 31.4518 12.7732 30.2915 13.9348L25.0244 19.2077C24.5681 19.6645 24.3604 20.3136 24.4668 20.9506L25.7009 28.3404C25.9749 29.9815 24.242 31.2202 22.778 30.4297L16.4502 27.0131C15.8572 26.6929 15.1428 26.6929 14.5498 27.0131L8.22204 30.4297C6.75797 31.2202 5.02507 29.9815 5.29914 28.3404L6.53324 20.9506C6.63961 20.3136 6.43191 19.6645 5.97555 19.2077L0.708466 13.9348C-0.451847 12.7732 0.204404 10.7856 1.82826 10.5433L9.01463 9.47079C9.67033 9.37294 10.2349 8.95651 10.5221 8.35895L13.6973 1.75131Z" fill="#C4C4C4"/>
</svg>
